<svg width="280" height="385" fill="none" xmlns="http://www.w3.org/2000/svg"><g clip-path="url(#clip0)"><path d="M0 4a4 4 0 0 1 4-4h272a4 4 0 0 1 4 4v381H0V4z" fill="#F2F2F2"/></g><path d="M0 4a4 4 0 0 1 4-4h272a4 4 0 0 1 4 4v126H0V4z" fill="#fff"/><rect x="19" y="273" width="159" height="90" rx="4" fill="#fff"/><rect x="19" y="150" width="73" height="70" rx="4" fill="#fff"/><rect x="34" y="229" width="43" height="7" rx="3.5" fill="#C7C7C7"/><rect x="92" y="57" width="103" height="7" rx="3.5" fill="#C7C7C7"/><rect opacity=".3" x="117" y="68" width="53" height="7" rx="3.5" fill="#C7C7C7"/><rect x="120" y="229" width="43" height="7" rx="3.5" fill="#C7C7C7"/><rect x="206" y="229" width="43" height="7" rx="3.5" fill="#C7C7C7"/><rect x="105" y="150" width="73" height="70" rx="4" fill="#fff"/><rect x="191" y="150" width="73" height="70" rx="4" fill="#fff"/><rect x="191" y="273" width="73" height="90" rx="4" fill="#fff"/><defs><clipPath id="clip0"><path fill="#fff" d="M0 0H280V385H0z"/></clipPath></defs></svg>